<svg id="clock" xmlns="http://www.w3.org/2000/svg" width="39.999" height="39.999" viewBox="0 0 39.999 39.999">
  <g id="XMLID_977_">
    <path id="XMLID_1030_" d="M35.731,7.651h1.236a.781.781,0,1,0,0-1.561H34a.781.781,0,0,0-.781.781V9.837a.781.781,0,1,0,1.561,0V8.978A18.438,18.438,0,1,1,20,1.561a18.716,18.716,0,0,1,2.249.136.781.781,0,1,0,.188-1.55A20.283,20.283,0,0,0,20,0,20,20,0,0,0,5.858,34.141,20,20,0,0,0,35.731,7.651Z" transform="translate(0)" fill="#007ba7"/>
    <path id="XMLID_1029_" d="M68.559,71.881a.781.781,0,0,0-1.077.242,14.907,14.907,0,1,0,4.666-4.657.781.781,0,0,0,.833,1.321,13.352,13.352,0,1,1-2.331,20.743A13.436,13.436,0,0,1,68.8,72.958.781.781,0,0,0,68.559,71.881Z" transform="translate(-60.09 -60.091)" fill="#007ba7"/>
    <path id="XMLID_1028_" d="M376.95,247.891h.963a.781.781,0,1,0,0-1.561h-.963a.781.781,0,0,0,0,1.561Z" transform="translate(-346.801 -227.099)" fill="#007ba7"/>
    <path id="XMLID_1004_" d="M103.835,246.787a.781.781,0,0,0,.781.781h.963a.781.781,0,1,0,0-1.561h-.963A.781.781,0,0,0,103.835,246.787Z" transform="translate(-95.728 -226.8)" fill="#007ba7"/>
    <path id="XMLID_1001_" d="M247.891,105.579v-.963a.781.781,0,1,0-1.561,0v.963a.781.781,0,1,0,1.561,0Z" transform="translate(-227.099 -95.728)" fill="#007ba7"/>
    <path id="XMLID_1415_" d="M246.006,376.95v.963a.781.781,0,1,0,1.561,0v-.963a.781.781,0,0,0-1.561,0Z" transform="translate(-226.8 -346.801)" fill="#007ba7"/>
    <path id="XMLID_996_" d="M190.305,157.4a.781.781,0,1,0-1.1,1.1l2.646,2.646a2.69,2.69,0,1,0,4.743,0l5.339-5.339a.781.781,0,0,0-1.1-1.1l-5.339,5.339a2.684,2.684,0,0,0-2.535,0Zm5.041,5.017a1.128,1.128,0,1,1-1.128-1.128A1.129,1.129,0,0,1,195.347,162.42Z" transform="translate(-174.219 -142.42)" fill="#007ba7"/>
    <path id="XMLID_980_" d="M119.511,119.511a.78.78,0,1,0-.552.229A.784.784,0,0,0,119.511,119.511Z" transform="translate(-108.952 -108.952)" fill="#007ba7"/>
    <path id="XMLID_979_" d="M316.219,11.439a.781.781,0,1,0-.552-.229A.784.784,0,0,0,316.219,11.439Z" transform="translate(-290.811 -9.107)" fill="#007ba7"/>
  </g>
</svg>
