<svg xmlns="http://www.w3.org/2000/svg" width="40" height="40" viewBox="0 0 40 40">
  <g id="profile" transform="translate(0 0)">
    <path id="Path_3122" data-name="Path 3122" d="M37.656,103.156h-7.5v-2.812A2.346,2.346,0,0,0,27.813,98h-4.7a.781.781,0,1,0,0,1.563h4.7a.782.782,0,0,1,.781.781v23.75a.782.782,0,0,1-.781.781H12.188a.782.782,0,0,1-.781-.781v-23.75a.782.782,0,0,1,.781-.781h4.679a.781.781,0,0,0,0-1.562H12.188a2.346,2.346,0,0,0-2.344,2.344v2.813h-7.5A2.346,2.346,0,0,0,0,105.5V128a2.346,2.346,0,0,0,2.344,2.344H16.719A2.346,2.346,0,0,0,19.063,128v-1.562h1.875V128a2.346,2.346,0,0,0,2.344,2.344H37.656A2.346,2.346,0,0,0,40,128V105.5A2.346,2.346,0,0,0,37.656,103.156Zm-7.5,6.874c.1-.009.208-.015.313-.015a3.651,3.651,0,1,1,0,7.3c-.1,0-.209-.006-.312-.015ZM9.844,117.3c-.1.009-.208.015-.312.015a3.651,3.651,0,1,1,0-7.3c.1,0,.209.006.313.015ZM17.5,128a.782.782,0,0,1-.781.781H2.344A.782.782,0,0,1,1.562,128V105.5a.782.782,0,0,1,.781-.781h7.5v3.744c-.1-.006-.208-.009-.312-.009a5.213,5.213,0,1,0,0,10.427q.157,0,.313-.009v2.254H5a.781.781,0,1,0,0,1.562H9.844v1.406a2.333,2.333,0,0,0,.134.781H6.629a.781.781,0,0,0,0,1.563H17.5Zm20.938,0a.782.782,0,0,1-.781.781H23.281A.782.782,0,0,1,22.5,128v-1.562H33.371a.781.781,0,0,0,0-1.563H30.022a2.333,2.333,0,0,0,.134-.781v-1.406H35a.781.781,0,1,0,0-1.562H30.156v-2.254q.156.01.313.01a5.214,5.214,0,1,0,0-10.427c-.1,0-.208,0-.312.009v-3.744h7.5a.782.782,0,0,1,.781.781Zm0,0" transform="translate(0 -90.344)" fill="#fff"/>
    <path id="Path_3123" data-name="Path 3123" d="M198.625,340.781a.781.781,0,0,0-.781-.781h-9.062a.781.781,0,0,0,0,1.563h9.063A.781.781,0,0,0,198.625,340.781Zm0,0" transform="translate(-173.313 -313.438)" fill="#fff"/>
    <path id="Path_3124" data-name="Path 3124" d="M209.636,388a.781.781,0,0,0,0,1.563h5.8a.781.781,0,0,0,0-1.562Zm0,0" transform="translate(-192.538 -357.688)" fill="#fff"/>
    <path id="Path_3125" data-name="Path 3125" d="M180.406,152a6.4,6.4,0,0,0-4.294,11.156.787.787,0,0,0,.114.1,6.387,6.387,0,0,0,8.36,0,.763.763,0,0,0,.115-.1A6.4,6.4,0,0,0,180.406,152Zm-2.8,10.352a3.084,3.084,0,0,1,5.609,0,4.827,4.827,0,0,1-5.609,0Zm1.821-4.346v-.441a.983.983,0,1,1,1.966,0v.441a.983.983,0,0,1-1.966,0Zm4.938,3.192a4.664,4.664,0,0,0-1.882-1.718,2.529,2.529,0,0,0,.472-1.474v-.441a2.545,2.545,0,0,0-5.091,0v.441a2.531,2.531,0,0,0,.472,1.474,4.668,4.668,0,0,0-1.882,1.718,4.844,4.844,0,1,1,7.91,0Zm0,0" transform="translate(-160.406 -140.125)" fill="#fff"/>
    <path id="Path_3126" data-name="Path 3126" d="M246.676,3.869a.781.781,0,0,0,.781-.781V.781a.781.781,0,0,0-1.563,0V3.087A.781.781,0,0,0,246.676,3.869Zm0,0" transform="translate(-226.684 0)" fill="#fff"/>
    <path id="Path_3127" data-name="Path 3127" d="M163.457,39.366a.781.781,0,0,0,1.1-1.1l-1.353-1.353a.781.781,0,0,0-1.105,1.105Zm0,0" transform="translate(-149.229 -33.813)" fill="#fff"/>
    <path id="Path_3128" data-name="Path 3128" d="M313.581,39.594a.779.779,0,0,0,.552-.229l1.353-1.353a.781.781,0,1,0-1.105-1.105l-1.353,1.353a.781.781,0,0,0,.553,1.334Zm0,0" transform="translate(-288.363 -33.813)" fill="#fff"/>
    <path id="Path_3129" data-name="Path 3129" d="M246.781,98a.781.781,0,1,0,.552.229A.787.787,0,0,0,246.781,98Zm0,0" transform="translate(-226.781 -90.344)" fill="#fff"/>
  </g>
</svg>
