<svg xmlns="http://www.w3.org/2000/svg" width="40" height="35.874" viewBox="0 0 40 35.874">
  <g id="headhunter" transform="translate(0)">
    <g id="Group_369" data-name="Group 369" transform="translate(0 0)">
      <g id="Group_368" data-name="Group 368">
        <path id="Path_3114" data-name="Path 3114" d="M293.352,123.035h12.254a.587.587,0,1,0,0-1.174H293.352a.587.587,0,0,0,0,1.174Z" transform="translate(-269.893 -114.403)" fill="#fff"/>
        <path id="Path_3115" data-name="Path 3115" d="M306.193,170.28a.587.587,0,0,0-.587-.587H293.352a.587.587,0,0,0,0,1.174h12.254A.587.587,0,0,0,306.193,170.28Z" transform="translate(-269.893 -158.499)" fill="#fff"/>
        <path id="Path_3116" data-name="Path 3116" d="M298.783,217.525h-5.431a.587.587,0,0,0,0,1.174h5.431a.587.587,0,1,0,0-1.174Z" transform="translate(-269.893 -202.594)" fill="#fff"/>
        <path id="Path_3117" data-name="Path 3117" d="M36.991,28.094H16.131A10.44,10.44,0,0,0,3.053,44.225c.1.1.21.2.317.3v6.065A3.012,3.012,0,0,0,6.378,53.6H17.7l-.807,3.483h-.96a3.869,3.869,0,0,0-3.864,3.864,1.331,1.331,0,0,0,1.33,1.33H29.973a1.331,1.331,0,0,0,1.33-1.33,3.869,3.869,0,0,0-3.864-3.864h-.96L25.672,53.6H36.991A3.012,3.012,0,0,0,40,50.592V31.1A3.012,3.012,0,0,0,36.991,28.094Zm-26.567-.518A9.267,9.267,0,1,1,3.883,43.395,9.274,9.274,0,0,1,10.424,27.577Zm8.207,19.088,1.626-1.626.007-.007a.127.127,0,0,1,.18,0L25.314,49.9a1.288,1.288,0,0,1-1.821,1.821l-4.869-4.869a.128.128,0,0,1,0-.18l.007-.007h0Zm-.415-1.245-.807-.807a10.682,10.682,0,0,0,.8-.8l.807.807Zm-7.792,1.862a10.469,10.469,0,0,0,6.063-1.931l1,1a1.3,1.3,0,0,0,.311,1.336l.734.734H4.543V45.461A10.378,10.378,0,0,0,10.424,47.281ZM4.543,50.592v-1H19.7l2.837,2.837H6.378a1.837,1.837,0,0,1-1.834-1.834ZM30.129,60.948a.156.156,0,0,1-.156.156H13.4a.156.156,0,0,1-.156-.156,2.694,2.694,0,0,1,2.691-2.691H27.439a2.694,2.694,0,0,1,2.691,2.691Zm-4.855-3.864H18.095L18.9,53.6h5.566Zm11.717-4.657H26.258a2.466,2.466,0,0,0,.282-2.837h3.834a.587.587,0,0,0,0-1.174H25.49L21.275,44.2a1.3,1.3,0,0,0-1.337-.312l-.994-.994A10.434,10.434,0,0,0,17.818,29.46c-.065-.065-.131-.128-.2-.191H36.991A1.837,1.837,0,0,1,38.826,31.1V48.416H32.9a.587.587,0,1,0,0,1.174h5.923v1a1.836,1.836,0,0,1-1.834,1.834Z" transform="translate(0.001 -26.404)" fill="#fff"/>
        <path id="Path_3118" data-name="Path 3118" d="M36.627,70.319a8.305,8.305,0,1,0-8.209-9.567.587.587,0,0,0,1.16.177,7.132,7.132,0,1,1,12.465,5.721A2.373,2.373,0,0,0,40.894,65.6a10.028,10.028,0,0,0-2.37-.543l0-.606a3.194,3.194,0,0,0,1.239-2.026,1,1,0,0,0,.59-.919c0-.607,0-1.684,0-1.7v-.875a1.366,1.366,0,0,0-1.1-1.338,1.366,1.366,0,0,0-1.331-1.065H35.331A2.471,2.471,0,0,0,32.863,59v2.516a1,1,0,0,0,.583.906A3.2,3.2,0,0,0,34.628,64.4l0,.668a10.026,10.026,0,0,0-2.365.563,2.311,2.311,0,0,0-1.077.991A7.074,7.074,0,0,1,29.6,63.244a.587.587,0,1,0-1.156.2,8.306,8.306,0,0,0,8.182,6.875ZM35.331,57.7h2.585a.19.19,0,0,1,.19.19.85.85,0,0,0,.849.849h.026a.19.19,0,0,1,.19.19v.231l-.591-.055a3.035,3.035,0,0,0-1.857.431,1.843,1.843,0,0,1-.963.271H34.037V59A1.3,1.3,0,0,1,35.331,57.7ZM34.037,61.36v-.374h1.724a3.015,3.015,0,0,0,1.576-.444,1.855,1.855,0,0,1,1.135-.263l.7.066c0,.309,0,.7,0,1.013a.716.716,0,0,0-.548.654,2.028,2.028,0,0,1-4.049,0A.721.721,0,0,0,34.037,61.36ZM36.6,65.088A3.2,3.2,0,0,0,37.35,65v.233a.967.967,0,0,0,.076.37,1.585,1.585,0,0,1-.848.247h0a1.585,1.585,0,0,1-.842-.24.967.967,0,0,0,.073-.371v-.253A3.193,3.193,0,0,0,36.6,65.088Zm-3.857,1.617a8.559,8.559,0,0,1,1.911-.451,2.75,2.75,0,0,0,1.916.771h.008a2.75,2.75,0,0,0,1.924-.787,8.558,8.558,0,0,1,1.915.435,1.173,1.173,0,0,1,.7.875,7.132,7.132,0,0,1-9.033-.028,1.16,1.16,0,0,1,.654-.814Z" transform="translate(-26.191 -51.576)" fill="#fff"/>
      </g>
    </g>
  </g>
</svg>
